<svg id="SVG_Logo" data-name="SVG Logo" xmlns="http://www.w3.org/2000/svg" width="734.884" height="79" viewBox="0 0 734.884 79">
  <g id="Layer_1" data-name="Layer 1" transform="translate(0.5 0.5)">
    <path id="Path_5" data-name="Path 5" d="M734.384,78.5H.5V.5H734.384ZM55.292,51.132V37.146H41.607v5.939h5.2v4.461a4.516,4.516,0,0,1-1.587.766,8.977,8.977,0,0,1-2.6.328A5.72,5.72,0,0,1,37.557,46.4,12.261,12.261,0,0,1,36,39.445V37.694a12.206,12.206,0,0,1,1.587-6.924,4.926,4.926,0,0,1,4.269-2.3A5.255,5.255,0,0,1,45.6,29.62a5.665,5.665,0,0,1,1.56,3.558h8.046a12.672,12.672,0,0,0-3.749-8.429,14.122,14.122,0,0,0-9.907-3.038,14.341,14.341,0,0,0-7.28,1.861,12.808,12.808,0,0,0-5.036,5.665,19.158,19.158,0,0,0-1.806,8.648v1.7a19.158,19.158,0,0,0,1.806,8.512,12.234,12.234,0,0,0,5.036,5.474,15.408,15.408,0,0,0,7.718,1.861,23.455,23.455,0,0,0,5.939-.684,18.83,18.83,0,0,0,4.488-1.669A11.933,11.933,0,0,0,55.292,51.132Zm24.385-9.415a10.427,10.427,0,0,0,4.3-3.667,10.756,10.756,0,0,0,1.341-6.076,9.141,9.141,0,0,0-1.56-5.474A9.032,9.032,0,0,0,79.4,23.134a17.625,17.625,0,0,0-6.651-1.149H59.534V54.826h8.4V43.879h3.886L77.3,54.826h9v-.356ZM67.936,29.1h4.817a4.16,4.16,0,0,1,3.065,1.04,4,4,0,0,1,1.095,3.011,4,4,0,0,1-1.067,3.011,4.215,4.215,0,0,1-3.093,1.013H67.936Zm42.722,25.863h9.059L107.675,22.121H99.711L87.751,54.963h9.032l1.669-5.474h10.537ZM100.395,42.757l3.175-10.373,3.2,10.373Zm43.516-13.684v-6.9H121.8V55.018h8.4V42.292h12.672V35.5H130.2V28.991Zm12.042,25.891V22.121h-8.211V54.963Zm16.421-13.219a22.112,22.112,0,0,1,3.531,1.451,4.242,4.242,0,0,1,1.587,1.314,3.038,3.038,0,0,1,.411,1.642,2.436,2.436,0,0,1-.931,1.888,4.488,4.488,0,0,1-2.9.794,9.634,9.634,0,0,1-2.983-.438,3.229,3.229,0,0,1-1.779-1.505,5.748,5.748,0,0,1-.493-2.874h-8.566a10.126,10.126,0,0,0,2,6.432,11.358,11.358,0,0,0,5.145,3.777,19.158,19.158,0,0,0,6.787,1.2,17.27,17.27,0,0,0,6.459-1.095,9.278,9.278,0,0,0,4.269-3.2,8.539,8.539,0,0,0,1.505-5.063,8.648,8.648,0,0,0-2.737-6.651,21.7,21.7,0,0,0-8.211-4.379,21.4,21.4,0,0,1-4.379-1.861,2.463,2.463,0,0,1-1.423-2.107,2.162,2.162,0,0,1,.493-1.368,3.394,3.394,0,0,1,1.451-.985,6.021,6.021,0,0,1,2.326-.383,4.379,4.379,0,0,1,3.093.9,3.421,3.421,0,0,1,1.067,2.737h8.4a9.579,9.579,0,0,0-1.587-5.474,10.126,10.126,0,0,0-4.461-3.558,15.545,15.545,0,0,0-6.349-1.2,18.091,18.091,0,0,0-6.623,1.122,10.318,10.318,0,0,0-4.571,3.2,7.855,7.855,0,0,0-1.669,4.954,7.91,7.91,0,0,0,1.56,4.926,11.823,11.823,0,0,0,3.941,3.366,35.936,35.936,0,0,0,5.747,2.436Zm44.665,1.916h-8.211a4.625,4.625,0,0,1-1.4,3.667,6.076,6.076,0,0,1-3.968,1.149,5.474,5.474,0,0,1-3.257-.821,4.57,4.57,0,0,1-1.7-2.737,22.387,22.387,0,0,1-.547-5.474V38.022a20.992,20.992,0,0,1,.575-5.474,5.255,5.255,0,0,1,1.724-2.874,4.9,4.9,0,0,1,3.01-.876,6.1,6.1,0,0,1,4.3,1.232,5.474,5.474,0,0,1,1.314,3.886h8.375a13.684,13.684,0,0,0-1.916-6.432,11.5,11.5,0,0,0-4.735-4.242,15.709,15.709,0,0,0-7.28-1.533,13.684,13.684,0,0,0-7.362,2.053,13.137,13.137,0,0,0-4.872,5.474,20.034,20.034,0,0,0-1.724,8.621v1.368a20.691,20.691,0,0,0,1.669,8.621,12.234,12.234,0,0,0,4.817,5.474,14.259,14.259,0,0,0,7.581,1.943,16.421,16.421,0,0,0,7.061-1.4,11.5,11.5,0,0,0,4.844-4.023,11.659,11.659,0,0,0,1.806-6.185Zm22.935-21.484V34.9H229.026V22.176H220.6V55.018h8.429V41.689h10.947V54.963h8.4V22.121Zm35.935,6.815V22.176H252.946V55.018H275.8V48.2H261.348v-6.76h12.206V34.9H261.348V28.991Zm37.248,0V22.176H290.222V55.018h22.825V48.2H298.624v-6.76H310.8V34.9H298.624V28.991Zm30.516,25.973V22.121H335.3V41.279L324.351,22.121h-8.4V54.963h8.4V35.805L335.3,54.963Zm26.848-32.842H359.793V54.963H370.74a14.888,14.888,0,0,0,7.745-2.025,14.013,14.013,0,0,0,5.474-5.611,16.613,16.613,0,0,0,1.971-8.211V37.885a16.7,16.7,0,0,0-1.971-8.211,14.4,14.4,0,0,0-5.474-5.638,15.545,15.545,0,0,0-7.992-1.861Zm6.705,17.023a11.139,11.139,0,0,1-1.669,6.733,5.665,5.665,0,0,1-4.817,2.272h-2.545V28.991h2.326a5.912,5.912,0,0,1,5.008,2.244,10.948,10.948,0,0,1,1.7,6.678Zm21.293,15.764V22.066h-8.375V54.908Zm32.4-3.777V37.146H417.239v5.939h5.2v4.461a4.68,4.68,0,0,1-1.615.766,8.785,8.785,0,0,1-2.573.328,5.747,5.747,0,0,1-5.091-2.244,12.261,12.261,0,0,1-1.56-6.952V37.694a12.207,12.207,0,0,1,1.587-6.924,4.981,4.981,0,0,1,4.3-2.3,5.255,5.255,0,0,1,3.75,1.149,5.83,5.83,0,0,1,1.533,3.558h8.046a12.671,12.671,0,0,0-3.749-8.429,14.067,14.067,0,0,0-9.907-3.038,14.341,14.341,0,0,0-7.28,1.861,12.972,12.972,0,0,0-5.008,5.474,19.158,19.158,0,0,0-1.806,8.648v1.7a19.4,19.4,0,0,0,1.779,8.648,12.4,12.4,0,0,0,5.036,5.474,15.49,15.49,0,0,0,7.718,1.861,23.674,23.674,0,0,0,5.966-.684,19.157,19.157,0,0,0,4.488-1.669,12.535,12.535,0,0,0,2.874-1.888Zm13.164,3.941V22.231H435.74V55.073Zm31.419-32.842H447.782v6.815h9.524V54.963h8.429V28.991h9.771Zm20.581,32.842h9.059L493.1,22.231H485.14L473.18,55.073h9.032l1.669-5.474H494.5ZM485.961,42.866l3.065-10.482,3.2,10.373Zm29.667,5.474V22.176h-8.4V55.018h21.895V48.2ZM555.2,29.182V22.176H532.268V55.018h22.853V48.2H540.671v-6.76h12.179V34.9H540.671V28.991Zm50.084-6.815H594.34l-6.815,21.895-6.815-21.895H569.763V55.209h8.4V48.778l-.821-16.667L584.9,54.963h5.474l7.554-22.853-.794,16.667v6.185h8.4ZM632.9,29.182V22.176H609.967V55.018h22.825V48.2H618.37v-6.76h12.179V34.9H618.37V28.991Zm13.684-6.815H635.721V55.209h10.947a14.889,14.889,0,0,0,7.745-2.025,14.177,14.177,0,0,0,5.474-5.611,16.611,16.611,0,0,0,1.971-8.211V38.132a16.7,16.7,0,0,0-1.971-8.211,14.4,14.4,0,0,0-5.474-5.638,15.545,15.545,0,0,0-7.964-2.107ZM653.237,39.2a11.139,11.139,0,0,1-1.669,6.733,5.665,5.665,0,0,1-4.817,2.272h-2.545V29.045h2.326a5.912,5.912,0,0,1,5.008,2.244,10.947,10.947,0,0,1,1.7,6.678Zm21.293,15.764V22.121h-8.375V54.963Zm25.617,0h9.059L697.026,22.176h-7.992l-11.96,32.842h9l1.669-5.474h10.537ZM690.02,42.757l3.175-10.373,3.2,10.373Z" transform="translate(-0.5 -0.5)" stroke="#231f20" stroke-miterlimit="10" stroke-width="1"/>
  </g>
</svg>
